# xmcd CD database file
#
# Track frame offsets:
#	150
#	22857
#	34657
#	45442
#	59462
#	77727
#	110877
#	128880
#	152415
#	178215
#	199262
#	221065
#
# Disc length: 3127 seconds
#
# Revision: 0
# Processed by: cddbd v1.5.1PL2 Copyright (c) Steve Scherf et al.
# Submitted via: CDex 1.51
#
DISCID=a30c350c
DTITLE=SENSHUKAI - ROCK MOVIE 4 Hard
DYEAR=1996
DGENRE=Rock
TTITLE0=BIRD ON A WIRE/THE NEVILLE BROTHERS
TTITLE1=GET READY/THE TEMPTATIONS
TTITLE2=SEA OF LOVE/PHIL PHILIPS
TTITLE3=JUBGLE BOOGIE/KOOL and THE GANG
TTITLE4=(THE BOYS ARE)BACK IN TOWN/JESSE JOHNSON
TTITLE5=LOOK UP TO THE SKY/THE INDIANS
TTITLE6=THE COLOR OF THE NIGHT/LAUREN CHRISTY
TTITLE7=RIDE WITH ME/BLACKEYED SUSAN
TTITLE8=OVER THE EDGE/L.A. GUNS
TTITLE9=I WANNA DO SOMETHING FREAKY TO YOU/KENYATTA
TTITLE10=YOU ARE SO BEAUTIFUL/BILLY PRESTON
TTITLE11=LOVE ME TENDER/NICOLAS CAGE
EXTD=YEAR: 1996
EXTT0=
EXTT1=
EXTT2=
EXTT3=
EXTT4=
EXTT5=
EXTT6=
EXTT7=
EXTT8=
EXTT9=
EXTT10=
EXTT11=
PLAYORDER=
